<?xml version="1.0" encoding="utf-8"?>
<svg width="10px" height="10px" viewBox="0 0 10 10" version="1.1" xmlns:xlink="http://www.w3.org/1999/xlink" xmlns="http://www.w3.org/2000/svg">
  <desc>Created with Lunacy</desc>
  <path d="M6.07443 5.00428L9.77814 8.70797C10.0739 9.00345 10.0739 9.48269 9.77814 9.77814C9.48266 10.0739 9.00374 10.0739 8.70797 9.77814L5.00423 6.07445L1.3002 9.77817C1.00504 10.0739 0.525483 10.0739 0.230027 9.77817C-0.0654558 9.48269 -0.0654558 9.00345 0.230027 8.708L3.93405 5.00428L0.221831 1.29208C-0.0739438 0.996307 -0.0739438 0.517364 0.221831 0.22191C0.369559 0.0738636 0.563319 0 0.757079 0C0.95052 0 1.14428 0.0738636 1.29203 0.22191L5.00423 3.93409L8.70797 0.230371C8.85601 0.0826442 9.04945 0.00846132 9.24321 0.00846132C9.43665 0.00846132 9.63041 0.0826442 9.77817 0.230371C10.0739 0.525852 10.0739 1.00477 9.77817 1.30054L6.07443 5.00428Z" transform="matrix(1 2.145688E-07 2.145688E-07 -1 0 10)" id="close" fill="#29313C" stroke="none" />
</svg>